<svg width="18" height="19" viewBox="0 0 18 19" fill="none" xmlns="http://www.w3.org/2000/svg">
<path d="M9.5334 9.13859L12.5089 6.1631L2.89819 0.761554C2.26123 0.417417 1.66452 0.369117 1.14127 0.745455L9.5334 9.13859ZM13.016 12.6222L16.1092 10.8824C16.713 10.5443 17.044 10.0653 17.044 9.53404C17.044 9.00375 16.713 8.52377 16.1102 8.18567L13.3099 6.6129L10.1573 9.76447L13.016 12.6222ZM0.624062 1.477C0.559662 1.67523 0.523438 1.8966 0.523438 2.13911V16.936C0.523438 17.3194 0.607963 17.6494 0.760913 17.9121L8.90852 9.76347L0.624062 1.477ZM9.5334 10.3873L1.43107 18.4907C1.58604 18.55 1.75307 18.5812 1.92917 18.5812C2.24312 18.5812 2.57015 18.4887 2.90322 18.3035L12.2161 13.074L9.5334 10.3873Z" fill="white"/>
</svg>
